<svg xmlns="http://www.w3.org/2000/svg" width="242" height="119.46" viewBox="0 0 242 119.46">
  <g id="Logo" transform="translate(-58.547 -235.789)">
    <g id="Group_1153" data-name="Group 1153" transform="translate(58.547 235.789)">
      <circle id="Ellipse_27" data-name="Ellipse 27" cx="6.026" cy="6.026" r="6.026" transform="translate(13.085 107.409)" fill="#fff"/>
      <path id="Path_960" data-name="Path 960" d="M-3674.452-1514.169s-10.213-31.424-8.129-49c.9-7.6,10.942-9.912,13.729-10.508,11.338-2.425,27.093-.763,30.917,0,2.868.572,10.365,3.1,12.714,10.508,1.92,6.058-.881,16.714-1.98,21.24-2.087,8.6-7.833,12.77-10.239,13.934-2.553,1.236-11.717,1.083-17.615,3.853-4.17,1.958-5.639,6.786-5.851,8.005-2.225,12.793-3.5,45.476-3.5,45.476s-5.59-26.682-5.872-45.476c-.028-1.883-.6-14.461,5.515-19.9,5.808-5.168,16.19-4.849,18.356-7.551,1.938-2.419,7.792-12.946,1.779-16.747-7.273-4.6-24.92-.369-26.043,3.488-2.028,6.966-2.979,17.133-3.421,25.811C-3674.567-1521.744-3674.452-1514.169-3674.452-1514.169Z" transform="translate(3682.861 1574.947)" fill="#fff"/>
    </g>
    <path id="Path_964" data-name="Path 964" d="M-948.861-618.1a15.651,15.651,0,0,1,8.079,2.064,19.08,19.08,0,0,1,5.884,5.357,24.528,24.528,0,0,1,3.6,7.464,29.827,29.827,0,0,1,1.229,8.474,28.2,28.2,0,0,1-1.142,7.948,20,20,0,0,1-3.557,6.938,17.935,17.935,0,0,1-6.1,4.874,19.434,19.434,0,0,1-8.782,1.844,20.356,20.356,0,0,1-8.255-1.581,17.448,17.448,0,0,1-6.1-4.391,19.377,19.377,0,0,1-3.82-6.586,24.358,24.358,0,0,1-1.317-8.079,28.409,28.409,0,0,1,1.449-8.957,26.136,26.136,0,0,1,4.083-7.816,20.271,20.271,0,0,1,6.411-5.489A17.11,17.11,0,0,1-948.861-618.1Zm0,39.694a9.623,9.623,0,0,0,5.225-1.405,11.678,11.678,0,0,0,3.688-3.688,17.072,17.072,0,0,0,2.152-5.225,26.187,26.187,0,0,0,.7-6.1,28.751,28.751,0,0,0-.746-6.542,21.364,21.364,0,0,0-2.2-5.752,13.848,13.848,0,0,0-3.469-4.127,7.216,7.216,0,0,0-4.567-1.581,6.8,6.8,0,0,0-5.093,2.2,16.571,16.571,0,0,0-3.381,5.357,31.383,31.383,0,0,0-1.844,6.586,36.962,36.962,0,0,0-.571,5.972,28.815,28.815,0,0,0,.4,4.435,16.028,16.028,0,0,0,1.493,4.7A10.39,10.39,0,0,0-954-579.9,8.3,8.3,0,0,0-948.861-578.408Zm50.32-35.566a3.768,3.768,0,0,1-.176-.966v-.615a3.825,3.825,0,0,1,1.229-3.074,4.086,4.086,0,0,1,2.722-1.054,4.174,4.174,0,0,1,2.9,1.361q1.405,1.361,2.108,5.313.176,1.142.7,5.269a78.186,78.186,0,0,1,.527,9.748,74.762,74.762,0,0,1-.527,8.826,31.972,31.972,0,0,1-1.932,7.991,15.028,15.028,0,0,1-3.908,5.8,9.19,9.19,0,0,1-6.367,2.239,11.836,11.836,0,0,1-7.2-2.327,25.239,25.239,0,0,1-5.62-5.8,41.075,41.075,0,0,1-4.215-7.552q-1.756-4.084-2.9-7.508,0,5.181.22,9.792t.22,7.069q0,3.776-.747,5.049a2.234,2.234,0,0,1-1.976,1.273,2.08,2.08,0,0,1-1.01-.263,2.135,2.135,0,0,1-.834-.966,7.465,7.465,0,0,1-.571-2.064,30.447,30.447,0,0,1-.307-3.469q0-.7-.044-2.2t-.088-3.337q-.044-1.844-.088-3.776t-.044-3.425q0-1.756-.044-4.128t-.044-5.006q0-2.459.044-4.918t.264-4.523a31.12,31.12,0,0,1,.571-3.6,4.425,4.425,0,0,1,.878-2.064,2.611,2.611,0,0,1,1.932-.7q2.283,0,4.347,2.9a43.836,43.836,0,0,1,4.04,7.245q1.976,4.347,3.864,9.44t3.776,9.44a49.613,49.613,0,0,0,3.776,7.245q1.888,2.9,3.908,2.9,2.108,0,3.118-3.249a27.239,27.239,0,0,0,1.01-7.991,61.255,61.255,0,0,0-.483-7.508q-.483-3.908-1.1-7.289t-1.186-5.972Q-898.366-613.008-898.541-613.974Zm43.206-3.776q0-1.405.176-4.523t.483-6.5q.307-3.381.746-6.323a12.59,12.59,0,0,1,1.054-4,1.84,1.84,0,0,1,.659-.79,2.282,2.282,0,0,1,1.361-.351,2.965,2.965,0,0,1,1.493.351,3.338,3.338,0,0,1,.966.79,8.659,8.659,0,0,1,1.317,3.557q.527,2.591.878,6.06t.571,7.421q.219,3.952.307,7.64t.132,6.674q.044,2.986.044,4.567,0,1.932-.044,5.972t-.307,8.474q-.263,4.435-.7,8.343a19.2,19.2,0,0,1-1.229,5.576,3.7,3.7,0,0,1-.922,1.186,2.3,2.3,0,0,1-1.537.483,2.74,2.74,0,0,1-1.8-.615,5.737,5.737,0,0,1-1.273-1.493,8.418,8.418,0,0,1-.834-1.888q-.307-1.01-.483-1.888a23.779,23.779,0,0,1-6.323,4.259,18.613,18.613,0,0,1-7.9,1.625,19.086,19.086,0,0,1-6.894-1.229,16.549,16.549,0,0,1-5.62-3.557,16.3,16.3,0,0,1-3.776-5.664,19.846,19.846,0,0,1-1.361-7.552,21.613,21.613,0,0,1,2.722-10.8,27.765,27.765,0,0,1,7.069-8.255,33.861,33.861,0,0,1,9.88-5.357A39.262,39.262,0,0,1-855.335-617.751Zm.176,31.79q0-5.269-.263-10.363t-.263-10.362q0-1.493.044-2.9t.132-2.9a21.649,21.649,0,0,0-8.255,2.283,21.719,21.719,0,0,0-6.455,4.962,23.34,23.34,0,0,0-4.215,6.894,21.662,21.662,0,0,0-1.537,8.079,22.829,22.829,0,0,0,.4,4.215,11.694,11.694,0,0,0,1.405,3.82,8.393,8.393,0,0,0,2.591,2.766,6.975,6.975,0,0,0,3.952,1.054,12.046,12.046,0,0,0,6.982-2.283A23,23,0,0,0-855.159-585.96Zm48.651-2.986a2.424,2.424,0,0,1,1.888.834,2.655,2.655,0,0,1,.746,1.8,5.013,5.013,0,0,1-1.142,2.81,23.847,23.847,0,0,1-2.722,3.118,39.458,39.458,0,0,1-3.337,2.9,26.893,26.893,0,0,1-2.986,2.064,17.122,17.122,0,0,1-4.215,1.669,20.616,20.616,0,0,1-5.181.615,18.842,18.842,0,0,1-7.684-1.493,16.273,16.273,0,0,1-5.708-4.128,17.674,17.674,0,0,1-3.513-6.191,24.155,24.155,0,0,1-1.186-7.684,31.769,31.769,0,0,1,1.317-8.914,28.912,28.912,0,0,1,3.82-8.211,21.1,21.1,0,0,1,6.147-6.016,15.086,15.086,0,0,1,8.3-2.327,15.945,15.945,0,0,1,5.532.966,15.239,15.239,0,0,1,4.654,2.678,12.537,12.537,0,0,1,3.205,4.171,12.372,12.372,0,0,1,1.186,5.445A11.043,11.043,0,0,1-809.8-597.6a17.71,17.71,0,0,1-6.016,4.7,30.653,30.653,0,0,1-7.772,2.547,47.956,47.956,0,0,1-7.684.878,30.285,30.285,0,0,0,.615,3.688,11.443,11.443,0,0,0,1.493,3.6,8.481,8.481,0,0,0,2.766,2.722,8.36,8.36,0,0,0,4.435,1.054,10.313,10.313,0,0,0,3.864-.7,14.714,14.714,0,0,0,3.205-1.756,16.929,16.929,0,0,0,2.635-2.371,34.013,34.013,0,0,0,2.152-2.635,17.319,17.319,0,0,1,2.2-2.5A2.23,2.23,0,0,1-806.508-588.946Zm-9.66-16.071a10.687,10.687,0,0,0-.351-2.678,9.063,9.063,0,0,0-1.054-2.5,6.646,6.646,0,0,0-1.712-1.888,3.949,3.949,0,0,0-2.415-.746,5.205,5.205,0,0,0-4.127,2.151,19.532,19.532,0,0,0-2.942,5.094,34.073,34.073,0,0,0-1.8,5.972,49.248,49.248,0,0,0-.79,4.874,29.531,29.531,0,0,0,5.049-.659,18.846,18.846,0,0,0,4.918-1.756,11.375,11.375,0,0,0,3.732-3.117A7.523,7.523,0,0,0-816.168-605.017Zm44.875-13.085a7.447,7.447,0,0,1,4.874,1.361,3.927,3.927,0,0,1,1.625,3.03,3.927,3.927,0,0,1-1.625,3.03,7.29,7.29,0,0,1-4.786,1.361,11.152,11.152,0,0,0-5.137,1.185,16.038,16.038,0,0,0-4.3,3.249,22.851,22.851,0,0,0-3.513,4.874,48.059,48.059,0,0,0-2.766,6.059,67,67,0,0,0-2.371,7.289,54.943,54.943,0,0,0-1.581,7.991q-.176,1.23-.307,2.459a4.578,4.578,0,0,1-.571,1.932,2.357,2.357,0,0,1-2.283,1.142,3.313,3.313,0,0,1-2.766-1.493,13.27,13.27,0,0,1-1.844-3.82,30.936,30.936,0,0,1-1.142-5.137q-.4-2.81-.571-5.532t-.22-4.962q-.044-2.239-.044-3.381,0-1.317.044-3.337t.22-4.3q.176-2.283.527-4.61a25.074,25.074,0,0,1,.966-4.171,9.52,9.52,0,0,1,1.581-3.03,2.951,2.951,0,0,1,2.371-1.186,2.854,2.854,0,0,1,2.5,1.405,10.746,10.746,0,0,1,1.405,3.513,26.653,26.653,0,0,1,.615,4.479q.132,2.371.132,4.391,0,1.581-.044,2.722t-.044,1.669a70.016,70.016,0,0,1,3.381-6.586,31.049,31.049,0,0,1,4.3-5.8,22.8,22.8,0,0,1,5.269-4.171A12.141,12.141,0,0,1-771.293-618.1Z" transform="translate(1065.342 910.573)" fill="#fff"/>
  </g>
</svg>
